<svg width="34" height="35" viewBox="0 0 34 35" fill="none" xmlns="http://www.w3.org/2000/svg">
<path d="M16.9997 0.833313C7.79967 0.833313 0.333008 8.29998 0.333008 17.5C0.333008 26.7 7.79967 34.1666 16.9997 34.1666C26.1997 34.1666 33.6663 26.7 33.6663 17.5C33.6663 8.29998 26.1997 0.833313 16.9997 0.833313ZM16.9997 7.49998C20.2163 7.49998 22.833 10.1166 22.833 13.3333C22.833 16.55 20.2163 19.1666 16.9997 19.1666C13.783 19.1666 11.1663 16.55 11.1663 13.3333C11.1663 10.1166 13.783 7.49998 16.9997 7.49998ZM16.9997 30.8333C13.6163 30.8333 9.61634 29.4666 6.76634 26.0333C9.68568 23.7428 13.289 22.498 16.9997 22.498C20.7103 22.498 24.3137 23.7428 27.233 26.0333C24.383 29.4666 20.383 30.8333 16.9997 30.8333Z" fill="#FD5103"/>
</svg>
