<svg aria-hidden="true" style="position: absolute; width: 0; height: 0; overflow: hidden;" version="1.1" xmlns="http://www.w3.org/2000/svg" xmlns:xlink="http://www.w3.org/1999/xlink">
<defs>
<symbol id="icon-close-line" viewBox="0 0 32 32">
<path d="M17.253 16l7.37-7.369c0.138-0.156 0.223-0.362 0.223-0.588 0-0.49-0.398-0.888-0.888-0.888-0.226 0-0.433 0.085-0.59 0.224l0.001-0.001-7.369 7.369-7.369-7.378c-0.164-0.183-0.401-0.297-0.665-0.297-0.493 0-0.893 0.4-0.893 0.893 0 0.264 0.114 0.501 0.296 0.664l0.001 0.001 7.377 7.37-7.378 7.369c-0.198 0.164-0.323 0.411-0.323 0.686 0 0.492 0.398 0.89 0.89 0.89 0.275 0 0.522-0.125 0.685-0.322l0.001-0.001 7.378-7.369 7.369 7.37c0.154 0.133 0.357 0.214 0.578 0.214 0.491 0 0.889-0.398 0.889-0.889 0-0.221-0.081-0.424-0.215-0.58l0.001 0.001-7.369-7.37z"></path>
</symbol>
<symbol id="icon-Heart" viewBox="0 0 35 32">
<path fill="#fd5103" style="fill: var(--color1, #fd5103)" d="M17.684 32l-2.565-2.302c-9.107-8.143-15.119-13.512-15.119-20.106 0-5.373 4.28-9.592 9.726-9.592 3.077 0 6.029 1.413 7.958 3.645 1.949-2.223 4.788-3.625 7.954-3.645l0.003-0c5.447 0 9.726 4.221 9.726 9.592 0 6.592-6.013 11.963-15.119 20.125l-2.565 2.284z"></path>
<path fill="#fcfcfc" style="fill: var(--color2, #fcfcfc)" d="M17.684 28.632l-2.075-1.817c-7.373-6.429-12.241-10.669-12.241-15.874 0-4.241 3.464-7.572 7.874-7.572 2.491 0 4.881 1.115 6.442 2.877 1.595-1.763 3.889-2.868 6.441-2.877h0.002c4.409 0 7.874 3.331 7.874 7.572 0 5.204-4.867 9.443-12.241 15.887l-2.075 1.804z"></path>
</symbol>
<symbol id="icon-menu" viewBox="0 0 60 32">
<path d="M2 0h56c1.105 0 2 0.895 2 2s-0.895 2-2 2h-56c-1.105 0-2-0.895-2-2s0.895-2 2-2z"></path>
<path d="M2 14h56c1.105 0 2 0.895 2 2s-0.895 2-2 2h-56c-1.105 0-2-0.895-2-2s0.895-2 2-2z"></path>
<path d="M2 28h56c1.105 0 2 0.895 2 2s-0.895 2-2 2h-56c-1.105 0-2-0.895-2-2s0.895-2 2-2z"></path>
</symbol>
<symbol id="icon-chevron" viewBox="0 0 24 24">
<path d="M5.293 9.707l6 6c0.391 0.391 1.024 0.391 1.414 0l6-6c0.391-0.391 0.391-1.024 0-1.414s-1.024-0.391-1.414 0l-5.293 5.293-5.293-5.293c-0.391-0.391-1.024-0.391-1.414 0s-0.391 1.024 0 1.414z"></path>
</symbol>
<svg width="24" height="24" viewBox="0 0 24 24" fill="none" xmlns="http://www.w3.org/2000/svg">
<path d="M14.9376 15.6455L15.2506 15.9584L19.293 20.0009L19.9999 19.294L15.9574 15.2516L15.6444 14.9385L15.9172 14.5899C16.9424 13.2795 17.4996 11.6638 17.5 10L14.9376 15.6455ZM14.9376 15.6455L14.589 15.9181M14.9376 15.6455L14.589 15.9181M14.589 15.9181C13.2787 16.9428 11.6633 17.4996 10 17.5L14.589 15.9181ZM9.9999 17.5C5.86509 17.4999 2.5 14.1348 2.5 10C2.5 5.86514 5.86514 2.5 10 2.5C14.1348 2.5 17.4999 5.86508 17.5 9.99988L9.9999 17.5ZM16.5 10C16.5 6.41486 13.5851 3.5 10 3.5C6.41486 3.5 3.5 6.41486 3.5 10C3.5 13.5851 6.41486 16.5 10 16.5C13.5851 16.5 16.5 13.5851 16.5 10Z" fill="#FD5103" stroke="#FD5103"/>
</svg>
<svg id="glass" width="19" height="19" viewBox="0 0 19 19" fill="none" xmlns="http://www.w3.org/2000/svg">
<path d="M12.9376 13.6455L13.2506 13.9584L17.293 18.0009L17.9999 17.294L13.9574 13.2516L13.6444 12.9385L13.9172 12.5899C14.9424 11.2795 15.4996 9.66376 15.5 8L12.9376 13.6455ZM12.9376 13.6455L12.589 13.9181M12.9376 13.6455L12.589 13.9181M12.589 13.9181C11.2787 14.9428 9.66333 15.4996 8 15.5L12.589 13.9181ZM7.9999 15.5C3.86509 15.4999 0.5 12.1348 0.5 8C0.5 3.86514 3.86514 0.5 8 0.5C12.1348 0.5 15.4999 3.86508 15.5 7.99988L7.9999 15.5ZM14.5 8C14.5 4.41486 11.5851 1.5 8 1.5C4.41486 1.5 1.5 4.41486 1.5 8C1.5 11.5851 4.41486 14.5 8 14.5C11.5851 14.5 14.5 11.5851 14.5 8Z" fill="#FD5103" stroke="#FD5103"/>
</svg>

<svg id="lup" width="24" height="24" viewBox="0 0 24 24" fill="none" xmlns="http://www.w3.org/2000/svg">
<path d="M10 18C11.775 17.9996 13.4988 17.4054 14.897 16.312L19.293 20.708L20.707 19.294L16.311 14.898C17.405 13.4997 17.9996 11.7754 18 10C18 5.589 14.411 2 10 2C5.589 2 2 5.589 2 10C2 14.411 5.589 18 10 18ZM10 4C13.309 4 16 6.691 16 10C16 13.309 13.309 16 10 16C6.691 16 4 13.309 4 10C4 6.691 6.691 4 10 4Z" fill="#FD5103"/>
</svg>



</defs>
</svg>
