<svg aria-hidden="true" style="width:0;height:0;position:absolute;overflow:hidden" xmlns="http://www.w3.org/2000/svg"><defs><symbol id="icon-close-line" viewBox="0 0 32 32"><path d="m17.253 16 7.37-7.369a.889.889 0 0 0-1.255-1.252l.001-.001L16 14.747 8.631 7.369a.893.893 0 1 0-1.262 1.26l.001.001L14.747 16l-7.378 7.369a.889.889 0 0 0 .567 1.576.887.887 0 0 0 .685-.322l.001-.001L16 17.253l7.369 7.37a.889.889 0 0 0 1.252-1.255l.001.001-7.369-7.37z"/></symbol><symbol id="icon-Heart" viewBox="0 0 35 32"><path fill="#fd5103" style="fill:var(--color1,#fd5103)" d="m17.684 32-2.565-2.302C6.012 21.555 0 16.186 0 9.592 0 4.219 4.28 0 9.726 0c3.077 0 6.029 1.413 7.958 3.645A10.636 10.636 0 0 1 25.638 0h.003c5.447 0 9.726 4.221 9.726 9.592 0 6.592-6.013 11.963-15.119 20.125l-2.565 2.284z"/><path fill="#fcfcfc" style="fill:var(--color2,#fcfcfc)" d="m17.684 28.632-2.075-1.817C8.236 20.386 3.368 16.146 3.368 10.941c0-4.241 3.464-7.572 7.874-7.572 2.491 0 4.881 1.115 6.442 2.877a8.7 8.7 0 0 1 6.441-2.877h.002c4.409 0 7.874 3.331 7.874 7.572 0 5.204-4.867 9.443-12.241 15.887l-2.075 1.804z"/></symbol><symbol id="icon-menu" viewBox="0 0 60 32"><path d="M2 0h56a2 2 0 1 1 0 4H2a2 2 0 1 1 0-4zM2 14h56a2 2 0 1 1 0 4H2a2 2 0 1 1 0-4zM2 28h56a2 2 0 1 1 0 4H2a2 2 0 1 1 0-4z"/></symbol><symbol id="icon-chevron" viewBox="0 0 24 24"><path d="m5.293 9.707 6 6a.999.999 0 0 0 1.414 0l6-6a.999.999 0 1 0-1.414-1.414L12 13.586 6.707 8.293a.999.999 0 1 0-1.414 1.414z"/></symbol><svg id="glass" width="19" height="19" viewBox="0 0 19 19" fill="none" xmlns="http://www.w3.org/2000/svg"><path d="m12.938 13.646.313.312 4.042 4.043.707-.707-4.043-4.042-.313-.314.273-.348A7.452 7.452 0 0 0 15.5 8l-2.562 5.646Zm0 0-.349.272m.349-.272-.349.272m0 0A7.452 7.452 0 0 1 8 15.5l4.589-1.582ZM7.999 15.5C3.866 15.5.5 12.135.5 8S3.865.5 8 .5s7.5 3.365 7.5 7.5L8 15.5ZM14.5 8c0-3.585-2.915-6.5-6.5-6.5A6.506 6.506 0 0 0 1.5 8c0 3.585 2.915 6.5 6.5 6.5s6.5-2.915 6.5-6.5Z" fill="#FD5103" stroke="#FD5103"/></svg><svg id="lup" width="24" height="24" viewBox="0 0 24 24" fill="none" xmlns="http://www.w3.org/2000/svg"><path d="M10 18a7.952 7.952 0 0 0 4.897-1.688l4.396 4.396 1.414-1.414-4.396-4.396A7.952 7.952 0 0 0 18 10c0-4.411-3.589-8-8-8s-8 3.589-8 8 3.589 8 8 8Zm0-14c3.309 0 6 2.691 6 6s-2.691 6-6 6-6-2.691-6-6 2.691-6 6-6Z" fill="#FD5103"/></svg></defs></svg>